Coordinates
version=1
nRows=9
nColumns=63
inDegrees=yes

Units are S.I. units (second, meters, Newtons, ...)
If the header above contains a line with 'inDegrees', this indicates whether rotational values are in degrees (yes) or radians (no).

endheader
time	pelvis_tilt	pelvis_list	pelvis_rotation	pelvis_tx	pelvis_ty	pelvis_tz	hip_flexion_r	hip_adduction_r	hip_rotation_r	knee_angle_r	knee_angle_r_beta	ankle_angle_r	subtalar_angle_r	mtp_angle_r	hip_flexion_l	hip_adduction_l	hip_rotation_l	knee_angle_l	knee_angle_l_beta	ankle_angle_l	subtalar_angle_l	mtp_angle_l	L5_S1_Flex_Ext	L5_S1_Lat_Bending	L5_S1_axial_rotation	L4_L5_Flex_Ext	L4_L5_Lat_Bending	L4_L5_axial_rotation	L3_L4_Flex_Ext	L3_L4_Lat_Bending	L3_L4_axial_rotation	L2_L3_Flex_Ext	L2_L3_Lat_Bending	L2_L3_axial_rotation	L1_L2_Flex_Ext	L1_L2_Lat_Bending	L1_L2_axial_rotation	L1_T12_Flex_Ext	L1_T12_Lat_Bending	L1_T12_axial_rotation	Abs_r3	Abs_r2	Abs_r1	Abs_t1	Abs_t2	neck_flexion	neck_bending	neck_rotation	arm_flex_r	arm_add_r	arm_rot_r	elbow_flex_r	pro_sup_r	wrist_flex_r	wrist_dev_r	arm_flex_l	arm_add_l	arm_rot_l	elbow_flex_l	pro_sup_l	wrist_flex_l	wrist_dev_l
      2.26666667	      0.95699714	      1.36235337	     84.71233008	      0.18975897	      0.82486325	      0.60940871	      7.79143722	      0.74566485	     -4.77622334	     13.91325617	      0.24283213	     40.31546818	      6.83716744	      0.00000000	      7.95477975	     -1.07188801	     10.78323868	     13.07490941	      0.22820022	     40.84583040	    -16.34176632	      0.00000000	      0.12587278	     -0.14439454	     -2.83900390	      0.23375834	     -0.19204474	     -3.01644164	      0.20679639	     -0.35108090	     -3.01644164	      0.14386000	     -0.35108090	     -2.48412841	      0.11688547	     -0.29444936	     -2.30669067	      0.07192371	     -0.22366715	     -2.12925292	      0.89909670	     -1.63341997	    -15.78968798	      0.00000000	      0.00000000	     -0.86510171	      0.48795219	     12.19715364	     49.91244295	    -20.25650661	     45.43444581	    116.85775965	     87.51827087	    -10.55996544	     12.54809882	     31.31889611	    -11.34286417	      1.26857421	     81.37700623	     76.93161547	    -19.33771009	     11.68195027
      2.28333333	      0.78181011	      1.65520041	     84.38899936	      0.19009519	      0.82556071	      0.60777215	      7.24017305	      0.50603028	     -4.90040956	     13.56753072	      0.23679808	     40.47271117	      7.64904131	      0.00000000	      7.22896157	     -0.87564190	     10.85599826	     12.44846077	      0.21726663	     40.78830670	    -16.49715671	      0.00000000	      0.12373503	     -0.17091747	     -2.66872184	      0.22978832	     -0.22732023	     -2.83551696	      0.20328428	     -0.41556873	     -2.83551696	      0.14141676	     -0.41556873	     -2.33513161	      0.11490035	     -0.34853490	     -2.16833650	      0.07070219	     -0.26475116	     -2.00154138	      0.88382693	     -1.93345257	    -14.84263026	      0.00000000	      0.00000000	      0.09519386	      0.05787311	     11.16527911	     50.28448094	    -20.30171443	     45.31985410	    117.62513725	     87.52258123	    -10.74282458	     15.21928124	     31.99048247	    -10.90630537	      2.56533778	     81.29450654	     67.06704389	    -18.32015426	      9.59339594
      2.30000000	      0.69597886	      1.76034064	     84.23053265	      0.19019058	      0.82589780	      0.60633611	      6.98259005	      0.40748181	     -4.77897853	     13.37545568	      0.23344574	     40.59966292	      7.83055038	      0.00000000	      6.89864328	     -0.76777328	     10.85290483	     12.17942815	      0.21257112	     40.84183749	    -16.50364107	      0.00000000	      0.13819337	     -0.18241756	     -2.54636593	      0.25663891	     -0.24261535	     -2.70551380	      0.22703789	     -0.44353005	     -2.70551380	      0.15794120	     -0.44353005	     -2.22807019	      0.12832636	     -0.37198589	     -2.06892231	      0.07896369	     -0.28256480	     -1.90977444	      0.98710142	     -2.06354391	    -14.16212337	      0.00000000	      0.00000000	      1.18388599	     -0.18543343	     10.71983775	     50.88230424	    -20.29209883	     45.41487976	    117.94596279	     87.26586857	    -10.45897914	     15.57496975	     33.05515391	     -9.98908680	      2.98053631	     80.89157640	     66.61540951	    -17.94311429	      9.92947911
      2.31666667	      0.60954775	      1.62397293	     84.17322497	      0.19059070	      0.82588553	      0.60462736	      6.94983771	      0.36525000	     -4.66386434	     13.15869591	      0.22966257	     40.78212969	      7.92619800	      0.00000000	      6.83918893	     -0.70461251	     10.85180667	     11.99794207	      0.20940359	     40.92520234	    -16.49883327	      0.00000000	      0.20226312	     -0.19600118	     -2.51730709	      0.37562284	     -0.26068157	     -2.67463878	      0.33229808	     -0.47655728	     -2.67463878	      0.23116652	     -0.47655728	     -2.20264370	      0.18782153	     -0.39968561	     -2.04531201	      0.11557315	     -0.30360583	     -1.88798032	      1.44474523	     -2.21720458	    -14.00050683	      0.00000000	      0.00000000	      1.85027354	     -0.22820769	     10.65621846	     51.33099833	    -19.66203177	     45.51343214	    118.03558374	     87.21019552	    -10.27325585	     15.58378436	     34.16550178	     -9.27088191	      3.07770550	     80.29608451	     66.45735164	    -17.87778164	     10.05189027
      2.33333333	      0.42125036	      1.95317699	     83.21161175	      0.19164671	      0.82630026	      0.60381617	      6.69657017	      0.14552061	     -4.22418979	     13.24632678	      0.23119202	     40.92277929	      8.69415019	      0.00000000	      6.10978817	     -0.56502856	      9.80831622	     11.58509853	      0.20219811	     40.80296681	    -16.51924554	      0.00000000	      0.16456155	     -0.24474339	     -2.15039822	      0.30560725	     -0.32550871	     -2.28479811	      0.27035817	     -0.59506908	     -2.28479811	      0.18807740	     -0.59506908	     -1.88159844	      0.15281186	     -0.49908072	     -1.74719856	      0.09403047	     -0.37910751	     -1.61279867	      1.17544670	     -2.76858617	    -11.95986979	      0.00000000	      0.00000000	      2.92515005	     -0.32235348	      8.73617076	     51.11374927	    -19.76317468	     43.60498035	    118.59764739	     87.25297559	     -6.70734754	     15.20326850	     36.50357847	     -7.55603052	      3.80154701	     78.24019388	     64.44908779	    -16.08670634	      9.37483166
      2.35000000	      0.43931858	      1.92904604	     83.15497592	      0.19157570	      0.82604732	      0.60292861	      6.60409615	      0.15612552	     -4.17908575	     13.17366512	      0.22992383	     40.87771291	      8.72189974	      0.00000000	      6.00480622	     -0.57579533	      9.66329726	     11.54565532	      0.20150970	     40.83821711	    -16.57322876	      0.00000000	      0.18662452	     -0.24924615	     -2.17077629	      0.34658040	     -0.33149738	     -2.30644981	      0.30660542	     -0.60601708	     -2.30644981	      0.21329316	     -0.60601708	     -1.89942926	      0.17329953	     -0.50826274	     -1.76375574	      0.10663725	     -0.38608228	     -1.62808222	      1.33304028	     -2.81952227	    -12.07320651	      0.00000000	      0.00000000	      3.46022707	     -0.25853499	      8.99381498	     51.63571074	    -18.70612359	     43.13982854	    118.42121365	     87.52317677	     -6.48763064	     14.83031977	     37.61694040	     -6.74797825	      3.52424147	     77.84379645	     64.30839742	    -16.17842885	      9.19137312
      2.36666667	      0.52515834	      2.20800623	     82.67574406	      0.19151202	      0.82601633	      0.60243183	      6.28854755	      0.20283016	     -3.77135481	     13.26556454	      0.23152778	     40.74824976	      8.67821676	      0.00000000	      5.56346334	     -0.62735471	      8.90493489	     11.56637715	      0.20187136	     40.96480544	    -16.56408105	      0.00000000	      0.15121270	     -0.23724122	     -2.18972465	      0.28081711	     -0.31553082	     -2.32658244	      0.24842735	     -0.57682831	     -2.32658244	      0.17282100	     -0.57682831	     -1.91600907	      0.14041611	     -0.48378230	     -1.77915128	      0.08640294	     -0.36748665	     -1.64229349	      1.08009720	     -2.68372015	    -12.17859159	      0.00000000	      0.00000000	      3.82619289	     -0.09689570	     10.54252558	     52.29955899	    -17.21376918	     42.24192692	    117.15825176	     88.26817657	     -3.68034197	     11.02618940	     37.87096400	     -6.00970922	      2.71697381	     78.45262518	     63.70940550	    -15.52120020	      7.34163443
      2.38333333	      0.64302226	      2.25767243	     82.52796314	      0.19129309	      0.82549681	      0.60185460	      6.12842916	      0.29724436	     -3.68745949	     13.31979889	      0.23247435	     40.54195081	      8.60422146	      0.00000000	      5.43497034	     -0.72119507	      8.57007069	     11.66848000	      0.20365339	     41.07063799	    -16.67814654	      0.00000000	      0.15509099	     -0.23273307	     -2.22598088	      0.28801948	     -0.30953498	     -2.36510468	      0.25479899	     -0.56586718	     -2.36510468	      0.17725349	     -0.56586718	     -1.94773327	      0.14401749	     -0.47458927	     -1.80860946	      0.08861899	     -0.36050352	     -1.66948566	      1.10779942	     -2.63272300	    -12.38023784	      0.00000000	      0.00000000	      4.08030153	      0.04262365	     11.00260439	     52.59035376	    -15.96068262	     41.29668849	    116.86415091	     88.68070254	     -3.65230846	     10.04947587	     37.51026539	     -5.46959738	      2.51665370	     80.21855177	     63.62489370	    -15.18269609	      6.64971585
      2.40000000	      0.63752124	      2.27372841	     82.35085256	      0.19097273	      0.82501853	      0.60161832	      6.04748267	      0.30779597	     -3.10729208	     13.38834908	      0.23367077	     40.19038038	      7.94085611	      0.00000000	      5.32732896	     -0.71381256	      7.99084844	     11.64260103	      0.20320172	     41.15916198	    -16.42681509	      0.00000000	      0.18030749	     -0.21095159	     -2.40293753	      0.33484904	     -0.28056561	     -2.55312113	      0.29622717	     -0.51290769	     -2.55312113	      0.20607343	     -0.51290769	     -2.10257034	      0.16743353	     -0.43017248	     -1.95238675	      0.10302770	     -0.32676401	     -1.80220315	      1.28791837	     -2.38632657	    -13.36441768	      0.00000000	      0.00000000	      3.85245402	      0.15502524	     14.27746682	     53.92173703	    -14.29140798	     41.82947280	    115.04144272	     88.87552018	     -3.58844301	      5.48003220	     35.97681953	     -5.59266045	      1.58099380	     83.11463638	     63.61280794	    -14.10161220	      4.85861633
